/* XPM */
static char * walma_logo_xpm[] = {
"32 32 57 1",
" 	c None",
".	c #FFFFFF",
"+	c #8F8F8F",
"@	c #101010",
"#	c #343434",
"$	c #000000",
"%	c #0B0B0B",
"&	c #BFBFBF",
"*	c #404040",
"=	c #5D5D5D",
"-	c #CFCFCF",
";	c #484848",
">	c #010101",
",	c #7C7C7C",
"'	c #1A1A1A",
")	c #2B2B2B",
"!	c #222222",
"~	c #4E4E4E",
"{	c #737373",
"]	c #606060",
"^	c #303030",
"/	c #989898",
"(	c #090909",
"_	c #E6E6E6",
":	c #141414",
"<	c #7A7A7A",
"[	c #191919",
"}	c #666666",
"|	c #242424",
"1	c #1D1D1D",
"2	c #262626",
"3	c #0E0E0E",
"4	c #202020",
"5	c #727272",
"6	c #1C1C1C",
"7	c #030303",
"8	c #040404",
"9	c #4C4C4C",
"0	c #171717",
"a	c #131313",
"b	c #0C0C0C",
"c	c #080808",
"d	c #6B6B6B",
"e	c #161616",
"f	c #9A9A9A",
"g	c #0F0F0F",
"h	c #414141",
"i	c #0D0D0D",
"j	c #565656",
"k	c #121212",
"l	c #060606",
"m	c #0A0A0A",
"n	c #393939",
"o	c #3A3A3A",
"p	c #575757",
"q	c #5C5C5C",
"r	c #7F7F7F",
"................................",
"................................",
"................................",
"................................",
".+@@+...........................",
".#$$%....................&**&...",
".=$$$-...................;$$;...",
".->$$,...................'$$)...",
"..!$$~...................%$${...",
"..]$$^................../>$(_...",
"..&$$$_................_:$$<....",
"...[$$}.....&**&.......{$$%_....",
".../$$$_....|$$;.......1$$2.....",
"....3$${....$$$4......5$$$+.....",
"....6$$)....7$$).....+7$$}......",
"....;$$|...&$$$)....&8$$'_......",
"....&$$$_..9$$$$...&4$$8&.......",
".....0$$<..a$$$b...*$$cd........",
".....<$$e..$$$$$../$$$&.........",
"....._$$$__$$$$$_.[$$}..........",
"......3$${f$$>$$f_$$$_..........",
"......2$$gh$$i$$jf$$k...........",
"......+l$$m$$4$$no$$9...........",
".......p$$$$${$$g$$$&...........",
".......f$$$$k_%$$$$$............",
"......._q>$$9.2$$$$*............",
".........$$$&.+c$$c&............",
".........{${...&@$^.............",
"................&r&.............",
"................................",
"................................",
"................................"};
